<?xml version="1.0" encoding="UTF-8" standalone="no"?>
<!-- Created with Inkscape (http://www.inkscape.org/) -->

<svg
   xmlns:dc="http://purl.org/dc/elements/1.1/"
   xmlns:cc="http://creativecommons.org/ns#"
   xmlns:rdf="http://www.w3.org/1999/02/22-rdf-syntax-ns#"
   xmlns:svg="http://www.w3.org/2000/svg"
   xmlns="http://www.w3.org/2000/svg"
   xmlns:sodipodi="http://sodipodi.sourceforge.net/DTD/sodipodi-0.dtd"
   xmlns:inkscape="http://www.inkscape.org/namespaces/inkscape"
   width="250"
   height="250"
   viewBox="0 0 66.145832 66.145835"
   version="1.1"
   id="svg932"
   inkscape:version="0.92.3 (2405546, 2018-03-11)"
   sodipodi:docname="firebot-face.svg">
  <defs
     id="defs926">
    <clipPath
       clipPathUnits="userSpaceOnUse"
       id="clipPath4567">
      <path
         d="m 368.058,283.655 h 41.884 v -3.771 h -41.884 z"
         id="path4565"
         inkscape:connector-curvature="0" />
    </clipPath>
    <clipPath
       clipPathUnits="userSpaceOnUse"
       id="clipPath4587">
      <path
         d="m 416.406,335.902 h 23.459 v -28.848 h -23.459 z"
         id="path4585"
         inkscape:connector-curvature="0" />
    </clipPath>
    <clipPath
       clipPathUnits="userSpaceOnUse"
       id="clipPath4607">
      <path
         d="m 338.135,335.902 h 23.459 v -28.848 h -23.459 z"
         id="path4605"
         inkscape:connector-curvature="0" />
    </clipPath>
  </defs>
  <sodipodi:namedview
     id="base"
     pagecolor="#ffffff"
     bordercolor="#666666"
     borderopacity="1.0"
     inkscape:pageopacity="0.0"
     inkscape:pageshadow="2"
     inkscape:zoom="1.4"
     inkscape:cx="166.07914"
     inkscape:cy="160"
     inkscape:document-units="mm"
     inkscape:current-layer="layer1"
     showgrid="false"
     units="px"
     inkscape:window-width="1067"
     inkscape:window-height="686"
     inkscape:window-x="670"
     inkscape:window-y="124"
     inkscape:window-maximized="0" />
  <metadata
     id="metadata929">
    <rdf:RDF>
      <cc:Work
         rdf:about="">
        <dc:format>image/svg+xml</dc:format>
        <dc:type
           rdf:resource="http://purl.org/dc/dcmitype/StillImage" />
        <dc:title></dc:title>
      </cc:Work>
    </rdf:RDF>
  </metadata>
  <g
     inkscape:label="Layer 1"
     inkscape:groupmode="layer"
     id="layer1"
     transform="translate(0,-230.85415)">
    <g
       id="g6055"
       transform="matrix(1.3230475,0,0,1.2118096,-9.6559811,222.93226)">
      <g
         transform="matrix(0.35277777,0,0,-0.35277777,26.344502,46.329882)"
         id="g4557">
        <path
           inkscape:connector-curvature="0"
           id="path4559"
           style="fill:#528efa;fill-opacity:1;fill-rule:nonzero;stroke:none"
           d="m 0,0 h 31.715 c 3.13,0 5.667,2.537 5.667,5.667 v 1.488 c 0,3.129 -2.537,5.666 -5.667,5.666 H 0 c -3.13,0 -5.667,-2.537 -5.667,-5.666 V 5.667 C -5.667,2.537 -3.13,0 0,0" />
      </g>
      <g
         id="g4561"
         transform="matrix(0.35277777,0,0,-0.35277777,-105.29184,141.87385)">
        <g
           id="g4563" />
        <g
           id="g4575">
          <g
             style="opacity:0.39999402"
             id="g4573"
             clip-path="url(#clipPath4567)">
            <g
               id="g4571"
               transform="translate(368.0582,279.8838)">
              <path
                 inkscape:connector-curvature="0"
                 id="path4569"
                 style="fill:#1a3d7f;fill-opacity:1;fill-rule:nonzero;stroke:none"
                 d="M 0,0 C 1.007,2.22 3.231,3.771 5.828,3.771 H 36.055 C 38.652,3.771 40.876,2.22 41.884,0 Z" />
            </g>
          </g>
        </g>
      </g>
      <g
         transform="matrix(0.35277777,0,0,-0.35277777,41.606901,28.463521)"
         id="g4577">
        <path
           inkscape:connector-curvature="0"
           id="path4579"
           style="fill:#528efa;fill-opacity:1;fill-rule:nonzero;stroke:none"
           d="m 0,0 c 0,-7.966 6.135,-14.424 13.703,-14.424 7.568,0 13.703,6.458 13.703,14.424 0,7.966 -6.135,14.424 -13.703,14.424 C 6.135,14.424 0,7.966 0,0" />
      </g>
      <g
         id="g4581"
         transform="matrix(0.35277777,0,0,-0.35277777,-105.29184,141.87385)">
        <g
           id="g4583" />
        <g
           id="g4595">
          <g
             style="opacity:0.39999402"
             id="g4593"
             clip-path="url(#clipPath4587)">
            <g
               id="g4591"
               transform="translate(430.1088,335.9022)">
              <path
                 inkscape:connector-curvature="0"
                 id="path4589"
                 style="fill:#1a3d7f;fill-opacity:1;fill-rule:nonzero;stroke:none"
                 d="m 0,0 c 2.768,0 5.332,-0.88 7.486,-2.367 0,0 1.543,-16.882 2.27,-22.165 -2.484,-2.66 -5.933,-4.316 -9.756,-4.316 -7.568,0 -13.703,6.458 -13.703,14.424 C -13.703,-6.458 -7.568,0 0,0" />
            </g>
          </g>
        </g>
      </g>
      <g
         transform="matrix(0.35277777,0,0,-0.35277777,22.270516,28.463521)"
         id="g4597">
        <path
           inkscape:connector-curvature="0"
           id="path4599"
           style="fill:#528efa;fill-opacity:1;fill-rule:nonzero;stroke:none"
           d="m 0,0 c 0,-7.966 -6.135,-14.424 -13.703,-14.424 -7.568,0 -13.703,6.458 -13.703,14.424 0,7.966 6.135,14.424 13.703,14.424 C -6.135,14.424 0,7.966 0,0" />
      </g>
      <g
         id="g4601"
         transform="matrix(0.35277777,0,0,-0.35277777,-105.29184,141.87385)">
        <g
           id="g4603" />
        <g
           id="g4615">
          <g
             style="opacity:0.39999402"
             id="g4613"
             clip-path="url(#clipPath4607)">
            <g
               id="g4611"
               transform="translate(347.8912,335.9022)">
              <path
                 inkscape:connector-curvature="0"
                 id="path4609"
                 style="fill:#1a3d7f;fill-opacity:1;fill-rule:nonzero;stroke:none"
                 d="m 0,0 c -2.768,0 -5.332,-0.88 -7.486,-2.367 0,0 -1.542,-16.882 -2.27,-22.165 2.484,-2.66 5.933,-4.316 9.756,-4.316 7.568,0 13.703,6.458 13.703,14.424 C 13.703,-6.458 7.568,0 0,0" />
            </g>
          </g>
        </g>
      </g>
      <g
         transform="matrix(0.35277777,0,0,-0.35277777,24.740031,42.372138)"
         id="g4617">
        <path
           inkscape:connector-curvature="0"
           id="path4619"
           style="fill:#ffffff;fill-opacity:1;fill-rule:nonzero;stroke:none"
           d="m 0,0 h 40.811 c 16.606,0 29.45,14.561 27.377,31.036 L 65.513,52.3 C 63.777,66.099 52.044,76.449 38.137,76.449 H 2.675 c -13.908,0 -25.641,-10.35 -27.377,-24.149 L -27.377,31.036 C -29.449,14.561 -16.605,0 0,0" />
      </g>
      <g
         transform="matrix(0.35277777,0,0,-0.35277777,15.082142,31.42329)"
         id="g4621">
        <path
           inkscape:connector-curvature="0"
           id="path4623"
           style="fill:#daf1fd;fill-opacity:1;fill-rule:nonzero;stroke:none"
           d="M 0,0 2.675,21.264 C 3.558,28.283 7.032,34.406 12.059,38.732 4.93,25.693 0.474,9.907 3.83,-4.549 c 3.134,-13.499 13.952,-22.217 26.76,-26.06 0.5,-0.15 1.003,-0.289 1.507,-0.427 h -4.72 C 10.771,-31.036 -2.073,-16.475 0,0" />
      </g>
      <g
         transform="matrix(0.35277777,0,0,-0.35277777,24.264877,32.364715)"
         id="g4625">
        <path
           inkscape:connector-curvature="0"
           id="path4627"
           style="fill:#1a3d7f;fill-opacity:1;fill-rule:nonzero;stroke:none"
           d="m 0,0 h 43.505 c 7.044,0 12.455,5.259 11.459,11.136 l -1.501,8.855 c -0.815,4.806 -5.698,8.376 -11.459,8.376 H 1.501 c -5.76,0 -10.644,-3.57 -11.459,-8.376 l -1.501,-8.855 C -12.455,5.259 -7.044,0 0,0" />
      </g>
      <g
         transform="matrix(0.35277777,0,0,-0.35277777,37.486492,22.357326)"
         id="g4629">
        <path
           inkscape:connector-curvature="0"
           id="path4631"
           style="fill:#0d1f25;fill-opacity:1;fill-rule:nonzero;stroke:none"
           d="m 0,0 h 4.526 c 5.76,0 10.644,-3.57 11.458,-8.376 l 0.638,-3.763 C 11.999,-6.56 6.925,-2.767 0,0" />
      </g>
      <g
         transform="matrix(0.35277777,0,0,-0.35277777,20.222466,28.436181)"
         id="g4633">
        <path
           inkscape:connector-curvature="0"
           id="path4635"
           style="fill:#0d1f25;fill-opacity:1;fill-rule:nonzero;stroke:none"
           d="m 0,0 1.501,8.855 c 0.694,4.096 4.347,7.285 8.976,8.141 C 3.915,13.854 1.07,5.304 5.422,-0.058 c 5.745,-7.079 12.732,-9.364 22.517,-10.149 0.773,-0.063 0.825,-0.049 0.179,0.041 0.94,-0.122 1.88,-0.245 2.819,-0.376 1.518,-0.203 3.036,-0.405 4.557,-0.594 H 11.459 C 4.415,-11.136 -0.996,-5.878 0,0" />
      </g>
      <g
         transform="matrix(0.35277777,0,0,-0.35277777,39.91071,28.463521)"
         id="g4637">
        <path
           inkscape:connector-curvature="0"
           id="path4639"
           style="fill:none;stroke:#a1ddf9;stroke-width:1;stroke-linecap:round;stroke-linejoin:miter;stroke-miterlimit:10;stroke-dasharray:none;stroke-opacity:1"
           d="m 0,0 c 0,3.983 -3.229,7.212 -7.212,7.212 -3.983,0 -7.212,-3.229 -7.212,-7.212" />
      </g>
      <g
         transform="matrix(0.35277777,0,0,-0.35277777,23.966707,28.463521)"
         id="g4641">
        <path
           inkscape:connector-curvature="0"
           id="path4643"
           style="fill:none;stroke:#a1ddf9;stroke-width:1;stroke-linecap:round;stroke-linejoin:miter;stroke-miterlimit:10;stroke-dasharray:none;stroke-opacity:1"
           d="m 0,0 c 0,3.983 3.229,7.212 7.212,7.212 3.983,0 7.212,-3.229 7.212,-7.212" />
      </g>
      <g
         transform="matrix(0.35277777,0,0,-0.35277777,35.097411,35.33743)"
         id="g4645">
        <path
           inkscape:connector-curvature="0"
           id="path4647"
           style="fill:none;stroke:#1a3d7f;stroke-width:2;stroke-linecap:round;stroke-linejoin:miter;stroke-miterlimit:10;stroke-dasharray:none;stroke-opacity:1"
           d="m 0,0 c 0,-4.07 -4.009,-7.368 -8.954,-7.368 -4.945,0 -8.954,3.298 -8.954,7.368" />
      </g>
    </g>
  </g>
</svg>
